<mxfile host="app.diagrams.net" modified="2021-09-16T09:07:35.497Z" agent="5.0 (Windows NT 10.0; Win64; x64) AppleWebKit/537.36 (KHTML, like Gecko) Chrome/93.0.4577.82 Safari/537.36" etag="PtDt8QNe1rXmvLiG2J4i" version="15.2.7" type="github">
  <diagram id="prtHgNgQTEPvFCAcTncT" name="Page-1">
    <mxGraphModel dx="981" dy="608" grid="1" gridSize="10" guides="1" tooltips="1" connect="1" arrows="1" fold="1" page="1" pageScale="1" pageWidth="827" pageHeight="1169" math="0" shadow="0">
      <root>
        <mxCell id="0" />
        <mxCell id="1" parent="0" />
        <mxCell id="fmIa8_LFj1PNdlXjRXuK-12" value="Motorhome Adventure Website" style="swimlane;startSize=20;horizontal=1;containerType=tree;newEdgeStyle={&quot;edgeStyle&quot;:&quot;elbowEdgeStyle&quot;,&quot;startArrow&quot;:&quot;none&quot;,&quot;endArrow&quot;:&quot;none&quot;};verticalAlign=middle;" vertex="1" parent="1">
          <mxGeometry y="60" width="740" height="351" as="geometry">
            <mxRectangle x="134" y="60" width="80" height="20" as="alternateBounds" />
          </mxGeometry>
        </mxCell>
        <mxCell id="fmIa8_LFj1PNdlXjRXuK-13" value="" style="edgeStyle=elbowEdgeStyle;elbow=vertical;startArrow=none;endArrow=none;rounded=0;" edge="1" parent="fmIa8_LFj1PNdlXjRXuK-12" source="fmIa8_LFj1PNdlXjRXuK-15" target="fmIa8_LFj1PNdlXjRXuK-16">
          <mxGeometry relative="1" as="geometry">
            <Array as="points">
              <mxPoint x="200" y="120" />
            </Array>
          </mxGeometry>
        </mxCell>
        <mxCell id="fmIa8_LFj1PNdlXjRXuK-14" value="" style="edgeStyle=elbowEdgeStyle;elbow=vertical;startArrow=none;endArrow=none;rounded=0;entryX=0.5;entryY=0;entryDx=0;entryDy=0;" edge="1" parent="fmIa8_LFj1PNdlXjRXuK-12" target="fmIa8_LFj1PNdlXjRXuK-17">
          <mxGeometry relative="1" as="geometry">
            <mxPoint x="330" y="100" as="sourcePoint" />
            <Array as="points">
              <mxPoint x="200" y="120" />
              <mxPoint x="200" y="120" />
              <mxPoint x="240" y="120" />
            </Array>
          </mxGeometry>
        </mxCell>
        <UserObject label="Home" treeRoot="1" id="fmIa8_LFj1PNdlXjRXuK-15">
          <mxCell style="whiteSpace=wrap;html=1;align=center;treeFolding=1;treeMoving=1;newEdgeStyle={&quot;edgeStyle&quot;:&quot;elbowEdgeStyle&quot;,&quot;startArrow&quot;:&quot;none&quot;,&quot;endArrow&quot;:&quot;none&quot;};" vertex="1" parent="fmIa8_LFj1PNdlXjRXuK-12">
            <mxGeometry x="270" y="50" width="120" height="30" as="geometry" />
          </mxCell>
        </UserObject>
        <mxCell id="fmIa8_LFj1PNdlXjRXuK-16" value="Rental" style="whiteSpace=wrap;html=1;align=center;verticalAlign=middle;treeFolding=1;treeMoving=1;newEdgeStyle={&quot;edgeStyle&quot;:&quot;elbowEdgeStyle&quot;,&quot;startArrow&quot;:&quot;none&quot;,&quot;endArrow&quot;:&quot;none&quot;};" vertex="1" parent="fmIa8_LFj1PNdlXjRXuK-12">
          <mxGeometry x="80" y="150" width="100" height="30" as="geometry" />
        </mxCell>
        <mxCell id="fmIa8_LFj1PNdlXjRXuK-17" value="Resources" style="whiteSpace=wrap;html=1;align=center;verticalAlign=middle;treeFolding=1;treeMoving=1;newEdgeStyle={&quot;edgeStyle&quot;:&quot;elbowEdgeStyle&quot;,&quot;startArrow&quot;:&quot;none&quot;,&quot;endArrow&quot;:&quot;none&quot;};" vertex="1" parent="fmIa8_LFj1PNdlXjRXuK-12">
          <mxGeometry x="210" y="150" width="100" height="30" as="geometry" />
        </mxCell>
        <mxCell id="fmIa8_LFj1PNdlXjRXuK-21" value="Blog" style="whiteSpace=wrap;html=1;align=center;verticalAlign=middle;treeFolding=1;treeMoving=1;newEdgeStyle={&quot;edgeStyle&quot;:&quot;elbowEdgeStyle&quot;,&quot;startArrow&quot;:&quot;none&quot;,&quot;endArrow&quot;:&quot;none&quot;};" vertex="1" parent="fmIa8_LFj1PNdlXjRXuK-12">
          <mxGeometry x="340" y="150" width="100" height="30" as="geometry" />
        </mxCell>
        <mxCell id="fmIa8_LFj1PNdlXjRXuK-22" value="" style="edgeStyle=elbowEdgeStyle;elbow=vertical;startArrow=none;endArrow=none;rounded=0;entryX=0.6;entryY=-0.033;entryDx=0;entryDy=0;entryPerimeter=0;" edge="1" target="fmIa8_LFj1PNdlXjRXuK-21" parent="fmIa8_LFj1PNdlXjRXuK-12">
          <mxGeometry relative="1" as="geometry">
            <mxPoint x="330" y="110" as="sourcePoint" />
            <mxPoint x="400" y="130" as="targetPoint" />
            <Array as="points">
              <mxPoint x="290" y="120" />
            </Array>
          </mxGeometry>
        </mxCell>
        <mxCell id="fmIa8_LFj1PNdlXjRXuK-23" value="About" style="whiteSpace=wrap;html=1;align=center;verticalAlign=middle;treeFolding=1;treeMoving=1;newEdgeStyle={&quot;edgeStyle&quot;:&quot;elbowEdgeStyle&quot;,&quot;startArrow&quot;:&quot;none&quot;,&quot;endArrow&quot;:&quot;none&quot;};" vertex="1" parent="fmIa8_LFj1PNdlXjRXuK-12">
          <mxGeometry x="470" y="150" width="100" height="30" as="geometry" />
        </mxCell>
        <mxCell id="fmIa8_LFj1PNdlXjRXuK-24" value="" style="edgeStyle=elbowEdgeStyle;elbow=vertical;startArrow=none;endArrow=none;rounded=0;" edge="1" target="fmIa8_LFj1PNdlXjRXuK-23" parent="fmIa8_LFj1PNdlXjRXuK-12">
          <mxGeometry relative="1" as="geometry">
            <mxPoint x="330" y="100" as="sourcePoint" />
            <Array as="points">
              <mxPoint x="430" y="120" />
            </Array>
          </mxGeometry>
        </mxCell>
        <mxCell id="fmIa8_LFj1PNdlXjRXuK-25" value="" style="line;strokeWidth=1;direction=south;html=1;" vertex="1" parent="fmIa8_LFj1PNdlXjRXuK-12">
          <mxGeometry x="255" y="180" width="10" height="115" as="geometry" />
        </mxCell>
        <mxCell id="fmIa8_LFj1PNdlXjRXuK-27" value="Stopovers" style="rounded=0;whiteSpace=wrap;html=1;strokeWidth=1;" vertex="1" parent="fmIa8_LFj1PNdlXjRXuK-12">
          <mxGeometry x="280" y="200" width="120" height="30" as="geometry" />
        </mxCell>
        <mxCell id="fmIa8_LFj1PNdlXjRXuK-26" value="Shops" style="rounded=0;whiteSpace=wrap;html=1;strokeWidth=1;" vertex="1" parent="fmIa8_LFj1PNdlXjRXuK-12">
          <mxGeometry x="280" y="240" width="120" height="30" as="geometry" />
        </mxCell>
        <mxCell id="fmIa8_LFj1PNdlXjRXuK-28" value="Social Networks" style="rounded=0;whiteSpace=wrap;html=1;strokeWidth=1;" vertex="1" parent="fmIa8_LFj1PNdlXjRXuK-12">
          <mxGeometry x="280" y="280" width="120" height="30" as="geometry" />
        </mxCell>
        <mxCell id="fmIa8_LFj1PNdlXjRXuK-29" value="" style="line;strokeWidth=1;html=1;perimeter=backbonePerimeter;points=[];outlineConnect=0;" vertex="1" parent="fmIa8_LFj1PNdlXjRXuK-12">
          <mxGeometry x="260" y="210" width="20" height="10" as="geometry" />
        </mxCell>
        <mxCell id="fmIa8_LFj1PNdlXjRXuK-30" value="" style="line;strokeWidth=1;html=1;perimeter=backbonePerimeter;points=[];outlineConnect=0;" vertex="1" parent="fmIa8_LFj1PNdlXjRXuK-12">
          <mxGeometry x="260" y="250" width="20" height="10" as="geometry" />
        </mxCell>
        <mxCell id="fmIa8_LFj1PNdlXjRXuK-31" value="" style="line;strokeWidth=1;html=1;perimeter=backbonePerimeter;points=[];outlineConnect=0;" vertex="1" parent="fmIa8_LFj1PNdlXjRXuK-12">
          <mxGeometry x="260" y="290" width="20" height="10" as="geometry" />
        </mxCell>
        <mxCell id="fmIa8_LFj1PNdlXjRXuK-33" value="Sign in" style="shape=manualInput;whiteSpace=wrap;html=1;strokeWidth=1;size=27;verticalAlign=middle;" vertex="1" parent="fmIa8_LFj1PNdlXjRXuK-12">
          <mxGeometry x="430" y="30" width="80" height="50" as="geometry" />
        </mxCell>
        <mxCell id="fmIa8_LFj1PNdlXjRXuK-34" value="&lt;p style=&quot;line-height: 120%&quot;&gt;Register&lt;/p&gt;" style="shape=manualInput;whiteSpace=wrap;html=1;strokeWidth=1;size=27;verticalAlign=bottom;" vertex="1" parent="fmIa8_LFj1PNdlXjRXuK-12">
          <mxGeometry x="550" y="30" width="80" height="50" as="geometry" />
        </mxCell>
        <mxCell id="fmIa8_LFj1PNdlXjRXuK-35" value="Personal Data" style="shape=datastore;whiteSpace=wrap;html=1;strokeWidth=1;verticalAlign=middle;" vertex="1" parent="fmIa8_LFj1PNdlXjRXuK-12">
          <mxGeometry x="600" y="130" width="70" height="50" as="geometry" />
        </mxCell>
        <mxCell id="fmIa8_LFj1PNdlXjRXuK-37" value="" style="line;strokeWidth=1;html=1;perimeter=backbonePerimeter;points=[];outlineConnect=0;verticalAlign=middle;" vertex="1" parent="fmIa8_LFj1PNdlXjRXuK-12">
          <mxGeometry x="390" y="62" width="40" height="6" as="geometry" />
        </mxCell>
        <mxCell id="fmIa8_LFj1PNdlXjRXuK-38" value="" style="line;strokeWidth=1;html=1;perimeter=backbonePerimeter;points=[];outlineConnect=0;verticalAlign=middle;" vertex="1" parent="fmIa8_LFj1PNdlXjRXuK-12">
          <mxGeometry x="510" y="62" width="40" height="6" as="geometry" />
        </mxCell>
        <mxCell id="fmIa8_LFj1PNdlXjRXuK-39" value="" style="line;strokeWidth=1;html=1;perimeter=backbonePerimeter;points=[];outlineConnect=0;verticalAlign=middle;rotation=90;" vertex="1" parent="fmIa8_LFj1PNdlXjRXuK-12">
          <mxGeometry x="595" y="100" width="50" height="10" as="geometry" />
        </mxCell>
      </root>
    </mxGraphModel>
  </diagram>
</mxfile>
